<mxfile host="Electron" modified="2024-02-25T01:16:29.163Z" agent="Mozilla/5.0 (Windows NT 10.0; Win64; x64) AppleWebKit/537.36 (KHTML, like Gecko) draw.io/22.1.16 Chrome/120.0.6099.109 Electron/28.1.0 Safari/537.36" etag="UDGam5j_NYzRjArA55mh" version="22.1.16" type="device">
  <diagram name="Page-1" id="FAwGcwb6PwcKTcxW0u8m">
    <mxGraphModel dx="1725" dy="1286" grid="1" gridSize="10" guides="1" tooltips="1" connect="1" arrows="1" fold="1" page="1" pageScale="1" pageWidth="850" pageHeight="1100" math="0" shadow="0">
      <root>
        <mxCell id="0" />
        <mxCell id="1" parent="0" />
        <mxCell id="SBq4muaXOlgFCFDFc03f-75" value="" style="rounded=0;whiteSpace=wrap;html=1;" parent="1" vertex="1">
          <mxGeometry x="1710" y="220" width="700" height="560" as="geometry" />
        </mxCell>
        <mxCell id="SBq4muaXOlgFCFDFc03f-76" value="" style="ellipse;html=1;shape=startState;fillColor=#000000;strokeColor=#ff0000;" parent="1" vertex="1">
          <mxGeometry x="1770" y="535" width="30" height="30" as="geometry" />
        </mxCell>
        <mxCell id="SBq4muaXOlgFCFDFc03f-77" value="" style="edgeStyle=orthogonalEdgeStyle;html=1;verticalAlign=bottom;endArrow=open;endSize=8;strokeColor=#ff0000;rounded=0;entryX=0;entryY=0.5;entryDx=0;entryDy=0;" parent="1" source="SBq4muaXOlgFCFDFc03f-76" target="SBq4muaXOlgFCFDFc03f-84" edge="1">
          <mxGeometry relative="1" as="geometry">
            <mxPoint x="1825" y="552" as="targetPoint" />
          </mxGeometry>
        </mxCell>
        <mxCell id="SBq4muaXOlgFCFDFc03f-78" value="" style="ellipse;html=1;shape=endState;fillColor=#000000;strokeColor=#ff0000;" parent="1" vertex="1">
          <mxGeometry x="2175" y="712" width="30" height="30" as="geometry" />
        </mxCell>
        <mxCell id="SBq4muaXOlgFCFDFc03f-79" style="edgeStyle=orthogonalEdgeStyle;rounded=0;orthogonalLoop=1;jettySize=auto;html=1;" parent="1" source="SBq4muaXOlgFCFDFc03f-84" edge="1">
          <mxGeometry relative="1" as="geometry">
            <mxPoint x="1925" y="710" as="targetPoint" />
          </mxGeometry>
        </mxCell>
        <mxCell id="SBq4muaXOlgFCFDFc03f-80" value="Action received [action = &quot;up&quot;]/ move up" style="edgeLabel;html=1;align=center;verticalAlign=middle;resizable=0;points=[];" parent="SBq4muaXOlgFCFDFc03f-79" vertex="1" connectable="0">
          <mxGeometry x="0.0081" y="1" relative="1" as="geometry">
            <mxPoint x="-2" y="35" as="offset" />
          </mxGeometry>
        </mxCell>
        <mxCell id="SBq4muaXOlgFCFDFc03f-81" style="edgeStyle=orthogonalEdgeStyle;rounded=0;orthogonalLoop=1;jettySize=auto;html=1;entryX=0.5;entryY=1;entryDx=0;entryDy=0;" parent="1" source="SBq4muaXOlgFCFDFc03f-84" target="SBq4muaXOlgFCFDFc03f-92" edge="1">
          <mxGeometry relative="1" as="geometry">
            <mxPoint x="1925" y="350" as="targetPoint" />
          </mxGeometry>
        </mxCell>
        <mxCell id="SBq4muaXOlgFCFDFc03f-82" style="edgeStyle=orthogonalEdgeStyle;rounded=0;orthogonalLoop=1;jettySize=auto;html=1;exitX=1;exitY=1;exitDx=0;exitDy=0;" parent="1" source="SBq4muaXOlgFCFDFc03f-84" edge="1">
          <mxGeometry relative="1" as="geometry">
            <mxPoint x="2190" y="710" as="targetPoint" />
          </mxGeometry>
        </mxCell>
        <mxCell id="SBq4muaXOlgFCFDFc03f-83" style="edgeStyle=orthogonalEdgeStyle;rounded=0;orthogonalLoop=1;jettySize=auto;html=1;exitX=0.5;exitY=0;exitDx=0;exitDy=0;entryX=0;entryY=0;entryDx=0;entryDy=0;" parent="1" source="SBq4muaXOlgFCFDFc03f-92" target="SBq4muaXOlgFCFDFc03f-84" edge="1">
          <mxGeometry relative="1" as="geometry">
            <mxPoint x="1799.9699999999998" y="348" as="sourcePoint" />
            <mxPoint x="1799.9699999999998" y="348" as="targetPoint" />
            <Array as="points">
              <mxPoint x="1925" y="300" />
              <mxPoint x="1760" y="300" />
              <mxPoint x="1760" y="529" />
            </Array>
          </mxGeometry>
        </mxCell>
        <mxCell id="SBq4muaXOlgFCFDFc03f-84" value="Idle" style="ellipse;whiteSpace=wrap;html=1;" parent="1" vertex="1">
          <mxGeometry x="1870" y="520" width="110" height="60" as="geometry" />
        </mxCell>
        <mxCell id="SBq4muaXOlgFCFDFc03f-85" style="edgeStyle=orthogonalEdgeStyle;rounded=0;orthogonalLoop=1;jettySize=auto;html=1;entryX=0;entryY=1;entryDx=0;entryDy=0;" parent="1" source="SBq4muaXOlgFCFDFc03f-87" target="SBq4muaXOlgFCFDFc03f-84" edge="1">
          <mxGeometry relative="1" as="geometry">
            <Array as="points">
              <mxPoint x="1800" y="740" />
              <mxPoint x="1800" y="620" />
              <mxPoint x="1886" y="620" />
            </Array>
          </mxGeometry>
        </mxCell>
        <mxCell id="SBq4muaXOlgFCFDFc03f-86" value="evenHandled" style="edgeLabel;html=1;align=center;verticalAlign=middle;resizable=0;points=[];" parent="SBq4muaXOlgFCFDFc03f-85" vertex="1" connectable="0">
          <mxGeometry x="-0.0291" y="-1" relative="1" as="geometry">
            <mxPoint x="-1" y="3" as="offset" />
          </mxGeometry>
        </mxCell>
        <mxCell id="SBq4muaXOlgFCFDFc03f-87" value="Moving up" style="ellipse;whiteSpace=wrap;html=1;" parent="1" vertex="1">
          <mxGeometry x="1870" y="710" width="110" height="60" as="geometry" />
        </mxCell>
        <mxCell id="SBq4muaXOlgFCFDFc03f-88" style="edgeStyle=orthogonalEdgeStyle;rounded=0;orthogonalLoop=1;jettySize=auto;html=1;exitX=1;exitY=0.5;exitDx=0;exitDy=0;" parent="1" source="SBq4muaXOlgFCFDFc03f-84" edge="1">
          <mxGeometry relative="1" as="geometry">
            <mxPoint x="2290" y="550" as="targetPoint" />
            <mxPoint x="1935" y="590" as="sourcePoint" />
          </mxGeometry>
        </mxCell>
        <mxCell id="SBq4muaXOlgFCFDFc03f-89" value="Action received [action = &quot;down&quot;]/ move down" style="edgeLabel;html=1;align=center;verticalAlign=middle;resizable=0;points=[];" parent="SBq4muaXOlgFCFDFc03f-88" vertex="1" connectable="0">
          <mxGeometry x="0.0081" y="1" relative="1" as="geometry">
            <mxPoint x="-11" as="offset" />
          </mxGeometry>
        </mxCell>
        <mxCell id="SBq4muaXOlgFCFDFc03f-90" style="edgeStyle=orthogonalEdgeStyle;rounded=0;orthogonalLoop=1;jettySize=auto;html=1;entryX=1;entryY=0;entryDx=0;entryDy=0;" parent="1" source="SBq4muaXOlgFCFDFc03f-91" target="SBq4muaXOlgFCFDFc03f-84" edge="1">
          <mxGeometry relative="1" as="geometry">
            <Array as="points">
              <mxPoint x="2345" y="500" />
              <mxPoint x="1964" y="500" />
            </Array>
          </mxGeometry>
        </mxCell>
        <mxCell id="SBq4muaXOlgFCFDFc03f-91" value="Moving down" style="ellipse;whiteSpace=wrap;html=1;" parent="1" vertex="1">
          <mxGeometry x="2290" y="520" width="110" height="60" as="geometry" />
        </mxCell>
        <mxCell id="SBq4muaXOlgFCFDFc03f-92" value="Opening Door&lt;br&gt;Closing Door" style="ellipse;whiteSpace=wrap;html=1;" parent="1" vertex="1">
          <mxGeometry x="1870" y="342" width="110" height="60" as="geometry" />
        </mxCell>
        <mxCell id="SBq4muaXOlgFCFDFc03f-93" value="Action received [action = &quot;toogleDoor&quot;]/ toggleDoor" style="edgeLabel;html=1;align=center;verticalAlign=middle;resizable=0;points=[];" parent="1" vertex="1" connectable="0">
          <mxGeometry x="1919.996124375455" y="461.9976772878763" as="geometry" />
        </mxCell>
        <mxCell id="SBq4muaXOlgFCFDFc03f-94" value="" style="endArrow=none;html=1;rounded=0;entryX=1;entryY=0.5;entryDx=0;entryDy=0;exitX=0;exitY=0.5;exitDx=0;exitDy=0;" parent="1" source="SBq4muaXOlgFCFDFc03f-92" target="SBq4muaXOlgFCFDFc03f-92" edge="1">
          <mxGeometry width="50" height="50" relative="1" as="geometry">
            <mxPoint x="1950" y="442" as="sourcePoint" />
            <mxPoint x="2000" y="392" as="targetPoint" />
          </mxGeometry>
        </mxCell>
        <mxCell id="SBq4muaXOlgFCFDFc03f-95" value="Action received [action = &quot;quit&quot;]/ terminate" style="edgeLabel;html=1;align=center;verticalAlign=middle;resizable=0;points=[];" parent="1" vertex="1" connectable="0">
          <mxGeometry x="2190.0034348069803" y="611.9962417815934" as="geometry" />
        </mxCell>
        <mxCell id="SBq4muaXOlgFCFDFc03f-96" value="eventHandled" style="edgeLabel;html=1;align=center;verticalAlign=middle;resizable=0;points=[];" parent="1" vertex="1" connectable="0">
          <mxGeometry x="2175" y="500.0034846082823" as="geometry" />
        </mxCell>
        <mxCell id="SBq4muaXOlgFCFDFc03f-97" value="eventHandled" style="edgeLabel;html=1;align=center;verticalAlign=middle;resizable=0;points=[];" parent="1" vertex="1" connectable="0">
          <mxGeometry x="1760" y="395.0034846082823" as="geometry" />
        </mxCell>
        <mxCell id="SBq4muaXOlgFCFDFc03f-98" value="Elevator Subsystem State Machine" style="text;html=1;align=center;verticalAlign=middle;resizable=0;points=[];autosize=1;strokeColor=none;fillColor=none;" parent="1" vertex="1">
          <mxGeometry x="1710" y="220" width="210" height="30" as="geometry" />
        </mxCell>
        <mxCell id="SBq4muaXOlgFCFDFc03f-99" value="" style="endArrow=none;html=1;rounded=0;entryX=0.318;entryY=0.003;entryDx=0;entryDy=0;entryPerimeter=0;exitX=0.004;exitY=0.073;exitDx=0;exitDy=0;exitPerimeter=0;" parent="1" source="SBq4muaXOlgFCFDFc03f-75" target="SBq4muaXOlgFCFDFc03f-75" edge="1">
          <mxGeometry width="50" height="50" relative="1" as="geometry">
            <mxPoint x="2070" y="400" as="sourcePoint" />
            <mxPoint x="2120" y="350" as="targetPoint" />
            <Array as="points">
              <mxPoint x="1933" y="260" />
            </Array>
          </mxGeometry>
        </mxCell>
        <mxCell id="SBq4muaXOlgFCFDFc03f-132" value="" style="rounded=0;whiteSpace=wrap;html=1;" parent="1" vertex="1">
          <mxGeometry x="1080" y="225" width="490" height="650" as="geometry" />
        </mxCell>
        <mxCell id="SBq4muaXOlgFCFDFc03f-133" value="" style="ellipse;html=1;shape=startState;fillColor=#000000;strokeColor=#ff0000;" parent="1" vertex="1">
          <mxGeometry x="1175" y="540" width="30" height="30" as="geometry" />
        </mxCell>
        <mxCell id="SBq4muaXOlgFCFDFc03f-134" value="" style="edgeStyle=orthogonalEdgeStyle;html=1;verticalAlign=bottom;endArrow=open;endSize=8;strokeColor=#ff0000;rounded=0;entryX=0;entryY=0.5;entryDx=0;entryDy=0;" parent="1" source="SBq4muaXOlgFCFDFc03f-133" target="SBq4muaXOlgFCFDFc03f-138" edge="1">
          <mxGeometry relative="1" as="geometry">
            <mxPoint x="1230" y="557" as="targetPoint" />
          </mxGeometry>
        </mxCell>
        <mxCell id="SBq4muaXOlgFCFDFc03f-135" style="edgeStyle=orthogonalEdgeStyle;rounded=0;orthogonalLoop=1;jettySize=auto;html=1;entryX=0.5;entryY=1;entryDx=0;entryDy=0;" parent="1" source="SBq4muaXOlgFCFDFc03f-138" target="SBq4muaXOlgFCFDFc03f-139" edge="1">
          <mxGeometry relative="1" as="geometry">
            <mxPoint x="1330" y="355" as="targetPoint" />
          </mxGeometry>
        </mxCell>
        <mxCell id="SBq4muaXOlgFCFDFc03f-136" style="edgeStyle=orthogonalEdgeStyle;rounded=0;orthogonalLoop=1;jettySize=auto;html=1;exitX=0.5;exitY=0;exitDx=0;exitDy=0;entryX=0;entryY=0;entryDx=0;entryDy=0;" parent="1" source="SBq4muaXOlgFCFDFc03f-139" target="SBq4muaXOlgFCFDFc03f-138" edge="1">
          <mxGeometry relative="1" as="geometry">
            <mxPoint x="1204.9699999999998" y="353" as="sourcePoint" />
            <mxPoint x="1204.9699999999998" y="353" as="targetPoint" />
            <Array as="points">
              <mxPoint x="1330" y="305" />
              <mxPoint x="1165" y="305" />
              <mxPoint x="1165" y="534" />
            </Array>
          </mxGeometry>
        </mxCell>
        <mxCell id="SBq4muaXOlgFCFDFc03f-137" style="edgeStyle=orthogonalEdgeStyle;rounded=0;orthogonalLoop=1;jettySize=auto;html=1;entryX=0.5;entryY=0;entryDx=0;entryDy=0;" parent="1" target="SBq4muaXOlgFCFDFc03f-144" edge="1">
          <mxGeometry relative="1" as="geometry">
            <mxPoint x="1329.7" y="570" as="sourcePoint" />
            <mxPoint x="1329.7" y="730" as="targetPoint" />
            <Array as="points">
              <mxPoint x="1330" y="710" />
              <mxPoint x="1330" y="710" />
            </Array>
          </mxGeometry>
        </mxCell>
        <mxCell id="SBq4muaXOlgFCFDFc03f-138" value="WaitingForRequests" style="ellipse;whiteSpace=wrap;html=1;" parent="1" vertex="1">
          <mxGeometry x="1275" y="525" width="110" height="60" as="geometry" />
        </mxCell>
        <mxCell id="SBq4muaXOlgFCFDFc03f-139" value="AddingRequest" style="ellipse;whiteSpace=wrap;html=1;" parent="1" vertex="1">
          <mxGeometry x="1275" y="347" width="110" height="60" as="geometry" />
        </mxCell>
        <mxCell id="SBq4muaXOlgFCFDFc03f-140" value="MergeOrAddElevatorCall" style="edgeLabel;html=1;align=center;verticalAlign=middle;resizable=0;points=[];" parent="1" vertex="1" connectable="0">
          <mxGeometry x="1324.996124375455" y="466.9976772878763" as="geometry" />
        </mxCell>
        <mxCell id="SBq4muaXOlgFCFDFc03f-141" value="AddedElevatorCall / Idle" style="edgeLabel;html=1;align=center;verticalAlign=middle;resizable=0;points=[];" parent="1" vertex="1" connectable="0">
          <mxGeometry x="1165" y="400.0034846082823" as="geometry" />
        </mxCell>
        <mxCell id="SBq4muaXOlgFCFDFc03f-142" value="Scheduler State Machine" style="text;html=1;align=center;verticalAlign=middle;resizable=0;points=[];autosize=1;strokeColor=none;fillColor=none;" parent="1" vertex="1">
          <mxGeometry x="1100" y="225" width="160" height="30" as="geometry" />
        </mxCell>
        <mxCell id="SBq4muaXOlgFCFDFc03f-143" value="" style="endArrow=none;html=1;rounded=0;entryX=0.318;entryY=0.003;entryDx=0;entryDy=0;entryPerimeter=0;exitX=0.003;exitY=0.054;exitDx=0;exitDy=0;exitPerimeter=0;" parent="1" edge="1">
          <mxGeometry width="50" height="50" relative="1" as="geometry">
            <mxPoint x="1080.6" y="255.24000000000012" as="sourcePoint" />
            <mxPoint x="1301.1" y="226.68000000000006" as="targetPoint" />
            <Array as="points">
              <mxPoint x="1301.5" y="255" />
            </Array>
          </mxGeometry>
        </mxCell>
        <mxCell id="SBq4muaXOlgFCFDFc03f-144" value="AssigningAction" style="ellipse;whiteSpace=wrap;html=1;" parent="1" vertex="1">
          <mxGeometry x="1275" y="735" width="110" height="60" as="geometry" />
        </mxCell>
        <mxCell id="SBq4muaXOlgFCFDFc03f-145" value="AssignElevatorCarAction" style="edgeLabel;html=1;align=center;verticalAlign=middle;resizable=0;points=[];" parent="1" vertex="1" connectable="0">
          <mxGeometry x="1334.996124375455" y="634.9976772878763" as="geometry" />
        </mxCell>
        <mxCell id="SBq4muaXOlgFCFDFc03f-146" style="edgeStyle=orthogonalEdgeStyle;rounded=0;orthogonalLoop=1;jettySize=auto;html=1;entryX=1;entryY=0.5;entryDx=0;entryDy=0;exitX=0.5;exitY=1;exitDx=0;exitDy=0;" parent="1" source="SBq4muaXOlgFCFDFc03f-144" target="SBq4muaXOlgFCFDFc03f-138" edge="1">
          <mxGeometry relative="1" as="geometry">
            <mxPoint x="1395" y="845" as="sourcePoint" />
            <mxPoint x="1221" y="813.96" as="targetPoint" />
            <Array as="points">
              <mxPoint x="1330" y="845" />
              <mxPoint x="1475" y="845" />
              <mxPoint x="1475" y="555" />
            </Array>
          </mxGeometry>
        </mxCell>
        <mxCell id="SBq4muaXOlgFCFDFc03f-147" value="AssignedElevatorAction / Idle" style="edgeLabel;html=1;align=center;verticalAlign=middle;resizable=0;points=[];" parent="1" vertex="1" connectable="0">
          <mxGeometry x="1475" y="685.0034846082823" as="geometry" />
        </mxCell>
      </root>
    </mxGraphModel>
  </diagram>
</mxfile>
